<?xml version="1.0" encoding="utf-8"?>
<!-- Generator: Adobe Illustrator 21.0.0, SVG Export Plug-In . SVG Version: 6.00 Build 0)  -->
<svg version="1.1" id="Lager_1" xmlns="http://www.w3.org/2000/svg" xmlns:xlink="http://www.w3.org/1999/xlink" x="0px" y="0px"
	 viewBox="0 0 50 50" style="enable-background:new 0 0 50 50;" xml:space="preserve">
<style type="text/css">
	.st0{opacity:0.2;}
	.st1{fill:#FFFFFF;}
</style>
<g id="snowflake_10_" class="st0">
	<polygon class="st1" points="10.6,12.6 10.5,12.6 10.1,14.2 19.2,16.6 22.8,22.8 24.2,22 20.6,15.8 23.1,6.8 23.1,6.7 21.5,6.2 
		19.5,13.7 17.2,9.9 18.8,4.2 17.1,3.8 16.1,7.9 13.2,2.9 11.8,3.8 14.6,8.7 10.6,7.6 10.1,9.2 15.8,10.7 18,14.6 	"/>
	<polygon class="st1" points="22,25.8 22,24.2 14.8,24.2 8.2,17.5 7,18.7 12.5,24.2 8,24.2 3.9,20 2.7,21.2 5.7,24.2 0,24.2 0,25.8 
		5.7,25.8 2.7,28.8 3.9,30 8,25.8 12.5,25.8 7,31.3 8.2,32.5 14.8,25.8 	"/>
	<polygon class="st1" points="24.2,28.1 24.2,28 22.8,27.2 19.2,33.4 10.1,35.8 10.5,37.4 18,35.4 15.8,39.3 10.1,40.8 10.6,42.4 
		14.6,41.3 11.8,46.2 11.8,46.2 13.2,47.1 16.1,42.1 17.1,46.2 18.8,45.8 17.2,40.1 19.5,36.3 21.5,43.8 23.1,43.3 20.6,34.2 	"/>
	<polygon class="st1" points="39.4,37.4 39.5,37.4 39.9,35.8 30.8,33.4 27.2,27.2 27.2,27.2 25.8,28 29.4,34.2 26.9,43.3 28.5,43.8 
		30.5,36.3 32.8,40.1 31.2,45.8 32.9,46.2 33.9,42.1 36.7,47 36.8,47.1 38.2,46.2 35.4,41.3 39.3,42.4 39.4,42.4 39.9,40.8 
		34.2,39.3 32,35.4 	"/>
	<polygon class="st1" points="50,24.2 44.3,24.2 47.3,21.2 46.1,20 42,24.2 37.5,24.2 43,18.7 41.8,17.5 35.2,24.2 28,24.2 28,25.8 
		35.2,25.8 41.8,32.5 43,31.3 37.5,25.8 42,25.8 46.1,30 47.3,28.8 44.3,25.8 50,25.8 	"/>
	<polygon class="st1" points="25.8,22 27.2,22.8 30.8,16.6 39.8,14.2 39.9,14.2 39.5,12.6 32,14.6 34.2,10.7 39.9,9.2 39.4,7.6 
		35.4,8.7 38.2,3.8 36.8,2.9 33.9,7.9 32.9,3.8 31.2,4.2 32.8,9.9 30.5,13.7 28.6,6.3 28.5,6.2 26.9,6.7 29.4,15.8 	"/>
	<path class="st1" d="M25,22.5c-0.5,0-0.9,0.1-1.3,0.3c-0.6,0.3-1,0.9-1.2,1.6s-0.1,1.4,0.3,1.9c0.5,0.8,1.3,1.3,2.2,1.3
		c0.5,0,0.9-0.1,1.3-0.3c0.6-0.3,1-0.9,1.2-1.6s0.1-1.4-0.3-1.9C26.8,22.9,25.9,22.5,25,22.5z M24.1,24.8c0.1-0.2,0.2-0.4,0.4-0.5
		c0.1-0.1,0.3-0.1,0.5-0.1c0.3,0,0.6,0.2,0.8,0.5c0.1,0.2,0.1,0.5,0.1,0.7c-0.1,0.2-0.2,0.4-0.4,0.5C25.4,26,25.2,26,25,26
		c-0.3,0-0.6-0.2-0.8-0.5C24.1,25.2,24.1,25,24.1,24.8z"/>
	<path class="st1" d="M25,21.8l3.6-5.9l-3.6-6l-3.6,5.9L25,21.8z M25,18.5l-1.6-2.7l1.6-2.7l1.6,2.7L25,18.5z"/>
	<path class="st1" d="M15.3,23.5l6.9-0.1l-3.4-6l-6.9,0.1L15.3,23.5z M16.2,21.8l-1.5-2.7l3.1-0.1l1.5,2.7L16.2,21.8z"/>
	<path class="st1" d="M15.3,26.5l-3.4,6l6.9,0.1h0.1l3.4-6L15.3,26.5L15.3,26.5z M14.7,30.9l1.5-2.7l3.1,0.1L17.9,31L14.7,30.9z"/>
	<path class="st1" d="M25,28.3l-3.6,5.9l3.6,5.9l3.6-5.9L25,28.3z M25,31.5l1.6,2.7L25,36.9l-1.6-2.7L25,31.5z"/>
	<path class="st1" d="M31.2,32.7l6.9-0.1l-3.3-6l0,0l-6.9,0.1L31.2,32.7L31.2,32.7z M33.8,28.2l1.5,2.7L32.2,31l-1.5-2.7L33.8,28.2z
		"/>
	<path class="st1" d="M34.7,23.5l3.4-6l-6.9-0.1l-3.4,6L34.7,23.5z M35.3,19.1l-1.5,2.7l-3.1-0.1l1.5-2.7L35.3,19.1z"/>
</g>
</svg>
